<svg width="277" height="280" viewBox="0 0 277 280" fill="none" xmlns="http://www.w3.org/2000/svg">
<path d="M196.369 145.112L223.064 147.458C224.432 145.13 225.697 142.716 226.86 140.267L277 140.404V140.01C277 136.98 276.897 133.984 276.709 131.022L228.69 134.121C228.536 134.532 228.348 134.96 228.177 135.371L196.626 137.014C196.592 135.816 196.506 134.617 196.404 133.436L231.255 129.498C232.23 126.639 233.051 123.712 233.735 120.733L274.332 112.617C273.751 109.724 273.084 106.865 272.331 104.023L234.179 114.21C234.094 114.758 233.974 115.288 233.889 115.836L195.155 125.646C194.864 124.414 194.557 123.181 194.18 121.965L235.821 108.423C236.163 105.119 236.334 101.746 236.351 98.3389L266.073 85.7723C265.012 83.2556 263.867 80.756 262.669 78.3078L235.257 91.8673C235.308 92.5179 235.325 93.1685 235.359 93.8362L191.547 114.826C190.983 113.576 190.401 112.344 189.768 111.145L235.479 85.1218C235 81.4751 234.299 77.8969 233.41 74.3871L252.614 61.17C251.195 59.0813 249.707 57.0439 248.168 55.058L230.811 68.4463C231.033 69.1482 231.255 69.8673 231.46 70.5692L185.887 104.828C185.049 103.629 184.176 102.465 183.236 101.318L229.066 61.17C227.578 57.5747 225.903 54.0821 224.004 50.7264L234.521 39.8035C232.863 38.1941 231.187 36.6533 229.442 35.1467L220.14 45.8128C220.567 46.4976 220.96 47.1996 221.371 47.9015L178.311 96.0276C177.182 94.949 176.002 93.8875 174.788 92.8945L216.07 38.7078C213.607 35.5062 210.922 32.4587 208.066 29.5996L212.564 22.5288C210.803 21.3988 209.024 20.3202 207.211 19.2759L203.347 26.0043C203.979 26.5692 204.578 27.1856 205.193 27.7848L169.128 88.8369C167.725 87.9467 166.289 87.1078 164.818 86.3373L196.882 19.9093C193.531 17.4268 190.008 15.1669 186.348 13.1124L187.545 9.96224C185.784 9.27741 184.005 8.66107 182.21 8.06185L181.252 10.9724C182.056 11.3661 182.825 11.8113 183.612 12.2222L158.679 83.5467C157.054 82.9132 155.396 82.3482 153.703 81.8688L172.616 6.81204C168.649 5.33967 164.562 4.14122 160.372 3.19959L160.458 2.70309C158.799 2.41204 157.157 2.17235 155.481 1.98403L155.43 2.42916C156.336 2.58325 157.208 2.7887 158.098 2.97702L147.358 80.3965C145.528 80.0883 143.682 79.8486 141.818 79.7116L145.34 1.04239C144.058 0.939669 142.758 0.888307 141.458 0.854065C140.621 0.836945 139.783 0.819824 138.945 0.819824C138.107 0.819824 137.252 0.819824 136.431 0.854065C134.584 0.888307 132.754 0.956789 130.924 1.07663L135.507 79.5918C133.507 79.6432 131.523 79.7972 129.573 80.0541L117.517 2.48052C112.917 3.18247 108.402 4.1241 103.973 5.28831L123.639 81.0984C121.621 81.5778 119.638 82.1428 117.705 82.8105L90.3952 9.56846C86.2397 11.1093 82.1868 12.8556 78.2194 14.8074L112.319 84.9848C110.335 85.8922 108.42 86.9023 106.573 88.0152L65.2569 21.9809C61.7 24.2237 58.2285 26.6035 54.9109 29.1545L101.938 91.0284L101.973 91.0797C101.34 91.542 100.724 92.0214 100.126 92.5007L99.681 91.9529C98.2103 92.5863 96.7739 93.2541 95.3545 93.956L43.1626 39.17C40.2726 41.9093 37.5193 44.7685 34.8858 47.7646L90.4294 96.9692C90.4294 96.9692 90.532 96.9179 90.5833 96.8836L93.0459 99.1264C92.4644 99.777 91.883 100.445 91.3358 101.112L87.7275 98.0992C86.1884 99.0408 84.6664 100.017 83.1787 101.044L24.9502 60.3825C22.7955 63.4813 20.7605 66.6657 18.8623 69.9358L78.7324 104.896C78.835 104.81 78.9548 104.725 79.0745 104.639L85.9661 108.765C85.4702 109.587 85.0085 110.443 84.5467 111.282L75.8253 106.591C74.2349 107.926 72.6958 109.313 71.1909 110.734L11.3208 84.8478C9.90141 88.1179 8.61884 91.4564 7.45598 94.8463L67.3775 115.408C67.5314 115.237 67.7024 115.083 67.8563 114.912L80.9385 119.586C80.5964 120.579 80.2886 121.572 79.9979 122.582L64.3335 117.891C62.7773 119.688 61.3237 121.554 59.9044 123.472L2.87295 111.624C2.18891 114.895 1.64168 118.216 1.19706 121.589L56.9117 128.985C57.0998 128.694 57.2879 128.42 57.476 128.129L78.2023 131.142C78.0484 132.272 77.9287 133.402 77.8432 134.549L53.9362 132.46C52.5681 134.789 51.3026 137.203 50.1398 139.651L0 139.514V139.908C0 142.938 0.102605 145.934 0.290715 148.896L48.31 145.797C48.4639 145.386 48.652 144.958 48.823 144.547L77.7919 143.041C77.8774 144.291 77.9971 145.523 78.151 146.756L45.7448 150.42C44.7701 153.279 43.9493 156.207 43.2652 159.186L2.66774 167.301C3.24917 170.194 3.9161 173.053 4.66854 175.895L42.8206 165.709C42.9061 165.161 43.0258 164.63 43.1113 164.082L79.7243 154.803C80.0663 156.07 80.4596 157.337 80.8871 158.569L41.1618 171.478C40.8198 174.782 40.6488 178.155 40.6317 181.562L10.9104 194.129C11.9706 196.645 13.1164 199.145 14.3134 201.593L41.7261 188.034C41.6748 187.383 41.6577 186.733 41.6235 186.065L83.8969 165.811C84.5296 167.061 85.1966 168.294 85.9148 169.492L41.5038 194.779C41.9827 198.426 42.6838 202.004 43.573 205.514L24.3687 218.731C25.7881 220.82 27.2759 222.857 28.815 224.843L46.1724 211.455C45.9501 210.753 45.7277 210.034 45.5225 209.332L90.1729 175.758C91.0964 176.94 92.0369 178.087 93.0288 179.182L47.8996 218.714C49.3873 222.309 51.0632 225.802 52.9614 229.158L42.4444 240.081C44.1032 241.69 45.779 243.231 47.5233 244.737L56.8262 234.071C56.3987 233.386 56.0054 232.684 55.5949 231.982L98.2787 184.267C99.4758 185.295 100.707 186.288 101.99 187.229L60.8962 241.176C63.3587 244.378 66.0436 247.425 68.8994 250.284L64.4019 257.355C66.1633 258.485 67.9418 259.564 69.7545 260.608L73.6193 253.88C72.9865 253.315 72.388 252.698 71.7724 252.099L107.872 191.013C109.309 191.817 110.779 192.571 112.284 193.273L80.0834 259.992C83.4352 262.474 86.958 264.734 90.6175 266.789L89.4205 269.939C91.1819 270.624 92.9604 271.24 94.756 271.839L95.7136 268.929C94.9099 268.535 94.1403 268.09 93.3537 267.679L118.509 195.721C120.151 196.252 121.81 196.731 123.503 197.125L104.332 273.106C108.3 274.579 112.387 275.777 116.577 276.719L116.491 277.215C118.15 277.506 119.792 277.746 121.468 277.934L121.519 277.489C120.612 277.335 119.74 277.13 118.851 276.941L129.761 198.272C131.557 198.495 133.37 198.631 135.2 198.7L131.591 278.91C132.874 279.013 134.173 279.064 135.473 279.098C136.311 279.116 137.149 279.133 137.987 279.133C138.825 279.133 139.68 279.133 140.501 279.098C142.348 279.064 144.177 278.996 146.007 278.876L141.322 198.58C143.254 198.443 145.169 198.221 147.05 197.895L159.414 277.455C164.015 276.753 168.529 275.811 172.958 274.647L152.728 196.645C154.643 196.115 156.541 195.498 158.371 194.796L186.519 270.384C190.675 268.843 194.728 267.097 198.695 265.145L163.501 192.691C163.501 192.691 163.604 192.674 163.655 192.656L163.587 192.502C164.168 192.211 164.767 191.92 165.348 191.595L165.622 192.109C166.99 191.715 168.341 191.287 169.692 190.842L211.692 257.954C215.249 255.712 218.72 253.332 222.038 250.781L175.01 188.907L173.215 186.493C173.796 186.048 174.395 185.586 174.959 185.106L177.251 187.982C178.721 187.349 180.158 186.681 181.577 185.979L233.735 240.782C236.625 238.043 239.378 235.184 242.012 232.188L186.451 182.983C186.451 182.983 186.348 183.035 186.297 183.069L181.526 178.737C182.073 178.121 182.62 177.488 183.15 176.854L189.17 181.853C190.709 180.912 192.231 179.936 193.719 178.909L251.947 219.57C254.102 216.471 256.137 213.287 258.035 210.017L198.165 175.056C198.062 175.142 197.943 175.228 197.823 175.313L188.229 169.561C188.691 168.773 189.153 167.986 189.58 167.164L201.072 173.344C202.662 172.009 204.202 170.622 205.706 169.201L265.577 195.088C266.996 191.817 268.279 188.479 269.441 185.089L209.52 164.527C209.366 164.698 209.195 164.853 209.041 165.024L193.069 159.323C193.411 158.381 193.719 157.439 194.009 156.481L212.581 162.028C214.137 160.23 215.591 158.364 217.01 156.446L274.024 168.311C274.708 165.041 275.256 161.719 275.7 158.347L219.986 150.951C219.798 151.242 219.609 151.516 219.421 151.807L195.856 148.382C196.027 147.321 196.164 146.242 196.267 145.147L196.369 145.112ZM137.166 113.919C151.069 113.919 162.339 125.201 162.339 139.12C162.339 153.039 151.069 164.322 137.166 164.322C123.263 164.322 111.994 153.039 111.994 139.12C111.994 125.201 123.263 113.919 137.166 113.919Z" fill="#0DCEF9"/>
</svg>
